<mxfile host="Electron" modified="2024-06-12T18:12:34.682Z" agent="Mozilla/5.0 (Windows NT 10.0; Win64; x64) AppleWebKit/537.36 (KHTML, like Gecko) draw.io/24.5.1 Chrome/124.0.6367.207 Electron/30.0.6 Safari/537.36" etag="FdKkx7oj0Lr2bLesG7pR" version="24.5.1" type="device">
  <diagram name="Strona-1" id="Sjl_9fCkeCsYZoZEE_z2">
    <mxGraphModel dx="601" dy="403" grid="1" gridSize="10" guides="1" tooltips="1" connect="1" arrows="1" fold="1" page="1" pageScale="1" pageWidth="827" pageHeight="1169" math="0" shadow="0">
      <root>
        <mxCell id="0" />
        <mxCell id="1" parent="0" />
        <mxCell id="kzyy3FG2mPiCnmlQbXIF-2" style="rounded=0;orthogonalLoop=1;jettySize=auto;html=1;exitX=1;exitY=0.25;exitDx=0;exitDy=0;entryX=0;entryY=0.5;entryDx=0;entryDy=0;" parent="1" source="jl-1hNPgUvuF58t2oEqW-2" target="kzyy3FG2mPiCnmlQbXIF-1" edge="1">
          <mxGeometry relative="1" as="geometry" />
        </mxCell>
        <mxCell id="kzyy3FG2mPiCnmlQbXIF-3" style="rounded=0;orthogonalLoop=1;jettySize=auto;html=1;exitX=1;exitY=0.75;exitDx=0;exitDy=0;entryX=0;entryY=0.5;entryDx=0;entryDy=0;" parent="1" source="jl-1hNPgUvuF58t2oEqW-2" target="jl-1hNPgUvuF58t2oEqW-29" edge="1">
          <mxGeometry relative="1" as="geometry" />
        </mxCell>
        <mxCell id="jl-1hNPgUvuF58t2oEqW-2" value="&lt;b&gt;Jakość usług&amp;nbsp;&lt;/b&gt;&lt;b&gt;uczelni technicznej &lt;/b&gt;&lt;br&gt;[wyniki wybranych rankingów]" style="rounded=1;whiteSpace=wrap;html=1;" parent="1" vertex="1">
          <mxGeometry x="40" y="330" width="200" height="60" as="geometry" />
        </mxCell>
        <mxCell id="kzyy3FG2mPiCnmlQbXIF-4" style="edgeStyle=orthogonalEdgeStyle;rounded=0;orthogonalLoop=1;jettySize=auto;html=1;exitX=0.5;exitY=0;exitDx=0;exitDy=0;entryX=0.5;entryY=1;entryDx=0;entryDy=0;" parent="1" source="jl-1hNPgUvuF58t2oEqW-29" target="kzyy3FG2mPiCnmlQbXIF-1" edge="1">
          <mxGeometry relative="1" as="geometry" />
        </mxCell>
        <mxCell id="jl-1hNPgUvuF58t2oEqW-29" value="&lt;b&gt;Zarobki absolwentów&lt;/b&gt;&lt;br&gt;[Indeks Wyceny Rynkowej Absolwentów]" style="rounded=1;whiteSpace=wrap;html=1;" parent="1" vertex="1">
          <mxGeometry x="360" y="380" width="180" height="50" as="geometry" />
        </mxCell>
        <mxCell id="kzyy3FG2mPiCnmlQbXIF-1" value="&lt;b&gt;Satysfakcja interesariuszy&lt;/b&gt;&lt;br&gt;[Indeks Satysfakcji Interesariuszy uczelni technicznej]" style="rounded=1;whiteSpace=wrap;html=1;" parent="1" vertex="1">
          <mxGeometry x="360" y="290" width="180" height="50" as="geometry" />
        </mxCell>
      </root>
    </mxGraphModel>
  </diagram>
</mxfile>
